<svg xmlns="http://www.w3.org/2000/svg" version="1.1" xmlns:xlink="http://www.w3.org/1999/xlink" xmlns:svgjs="http://svgjs.dev/svgjs" width="1440" height="560" preserveAspectRatio="none" viewBox="0 0 1440 560"><g mask="url(&quot;#SvgjsMask1008&quot;)" fill="none"><rect width="1440" height="560" x="0" y="0" fill="rgba(34, 40, 49, 1)"></rect><path d="M1512 560L0 560 L0 299.15Q57.89 285.04, 72 342.93Q124.98 323.91, 144 376.89Q154.96 315.85, 216 326.81Q282.62 273.43, 336 340.05Q342.93 274.98, 408 281.91Q450.65 252.56, 480 295.21Q566.64 261.86, 600 348.5Q645.94 322.44, 672 368.39Q692.5 316.89, 744 337.4Q797.88 271.28, 864 325.17Q935.43 276.6, 984 348.03Q992.28 284.31, 1056 292.59Q1086.88 251.48, 1128 282.36Q1195.77 278.13, 1200 345.91Q1269.78 295.69, 1320 365.47Q1324.17 297.64, 1392 301.81Q1457.5 247.31, 1512 312.81z" fill="rgba(214, 198, 225, 1)"></path><path d="M1512 560L0 560 L0 385.31Q71.61 336.92, 120 408.53Q168.6 385.13, 192 433.73Q218.87 340.6, 312 367.46Q388.58 324.04, 432 400.63Q473.03 369.66, 504 410.7Q525.02 359.72, 576 380.74Q602.53 335.27, 648 361.81Q702.79 296.6, 768 351.38Q859.48 322.86, 888 414.34Q929.2 383.54, 960 424.74Q994.62 339.36, 1080 373.98Q1130.92 304.9, 1200 355.83Q1252.88 336.71, 1272 389.59Q1356.51 354.1, 1392 438.6Q1419.07 345.67, 1512 372.74z" fill="rgba(154, 115, 181, 1)"></path><path d="M1560 560L0 560 L0 453.33Q55.49 388.82, 120 444.31Q167.19 419.5, 192 466.7Q208.81 411.51, 264 428.33Q333.78 378.11, 384 447.88Q429.45 421.33, 456 466.78Q530.31 421.09, 576 495.4Q617.97 465.37, 648 507.34Q671.7 411.03, 768 434.73Q838.97 385.7, 888 456.67Q977.45 426.12, 1008 515.57Q1056.84 444.41, 1128 493.24Q1174.85 420.09, 1248 466.94Q1300.47 399.41, 1368 451.88Q1423.41 435.29, 1440 490.7Q1493.71 424.41, 1560 478.13z" fill="rgba(139, 95, 191, 1)"></path><path d="M1488 560L0 560 L0 554.91Q68.67 503.58, 120 572.25Q152.43 484.68, 240 517.11Q292.21 497.32, 312 549.53Q384.86 502.39, 432 575.25Q449.91 473.16, 552 491.07Q594.96 462.03, 624 504.99Q709.67 470.66, 744 556.33Q788.07 480.4, 864 524.48Q949.26 489.75, 984 575.01Q1013.44 532.45, 1056 561.9Q1082.34 468.24, 1176 494.57Q1248.66 447.23, 1296 519.89Q1361.88 513.77, 1368 579.66Q1406.56 498.22, 1488 536.79z" fill="white"></path></g><defs><mask id="SvgjsMask1008"><rect width="1440" height="560" fill="#ffffff"></rect></mask></defs></svg>